<svg id="Capa_1" enable-background="new 0 0 511.919 511.919" height="512" viewBox="0 0 511.919 511.919" width="512" xmlns="http://www.w3.org/2000/svg"><g><path d="m478.592 300.085c0-15.551-12.651-28.202-28.202-28.202-6.036 0-11.636 1.906-16.229 5.148-4.654-9.188-14.191-15.499-25.176-15.499-6.036 0-11.636 1.906-16.229 5.148-4.654-9.188-14.191-15.499-25.176-15.499-4.768 0-9.26 1.194-13.202 3.291v-36.538l50.516 24.335-11.739-86.584 60.391-63.147-85.974-15.59-41.395-76.948-41.395 76.948-22.552 4.09 2.676 14.76 29.663-5.379 31.607-58.757 31.608 58.757 65.647 11.904-46.111 48.218 8.964 66.113-31.906-15.369v-8.165c0-15.55-12.651-28.201-28.202-28.201s-28.202 12.651-28.202 28.201v8.165l-31.905 15.369 8.964-66.113-46.111-48.218 21.222-3.849-2.676-14.76-48.659 8.823 60.391 63.147-11.74 86.584 50.516-24.335v73.274l-29.999 25.976v83.919l50.16 61.564v49.25h79.755v-15h-64.755v-29.416h109.755v29.419h-30v15h45v-50.692l20.701-61.564v-99.578zm-15 97.123-18.592 55.292h-115.8l-46.224-56.733v-71.728l14.999-12.988v62.495h15v-180.426c0-7.279 5.923-13.201 13.202-13.201s13.202 5.922 13.202 13.201v122.492h15v-36.229c0-7.279 5.923-13.201 13.202-13.201s13.202 5.922 13.202 13.201v41.404h15v-31.053c0-7.279 5.923-13.202 13.202-13.202s13.202 5.923 13.202 13.202v36.229h15v-25.878c0-7.279 5.923-13.202 13.202-13.202s13.202 5.923 13.202 13.202v97.123z"/><path d="m131.855 142.768-32.022 59.524-66.506 12.06 46.715 48.848-9.082 66.979 60.895-29.334 60.894 29.334-9.082-66.979 46.716-48.849-66.506-12.06zm35.976 115.288 6.307 46.508-42.282-20.369-42.283 20.369 6.307-46.508-32.44-33.919 46.18-8.374 22.235-41.333 22.234 41.333 46.18 8.374z"/><path d="m183.847 394.382-21.993-40.882-21.993 40.882-45.677 8.284 32.084 33.55-6.237 46.002 41.823-20.147 41.823 20.147-6.237-46.002 32.086-33.55zm1.219 62.221-23.212-11.183-23.212 11.183 3.462-25.531-17.809-18.622 25.353-4.597 12.206-22.69 12.206 22.69 25.353 4.597-17.809 18.622z"/><path d="m333.678 115.146h15v15h-15z"/><path d="m303.677 115.146h15v15h-15z"/></g></svg>